<?xml version="1.0" encoding="UTF-8"?>
<svg width="700pt" height="700pt" version="1.1" viewBox="0 0 700 700" xmlns="http://www.w3.org/2000/svg" xmlns:xlink="http://www.w3.org/1999/xlink">
 <g fill="white">
  <path d="m419.76 144.75c-22.512 10.496-47.531 33.82-59.977 73.242-22.277 70.555 25.93 108.08 22.152 168.16-3.4727 54.84-32.727 83.215-39.465 89.422 4.4961-5.668 15.086-28.555 2.3789-69.484-11.156-35.926-49.262-80.809-59.77-121.02-8.043-30.727-10.746-47.523-7.4414-47.531 7.293 0.027344 46.973-3 64.422-34.059 12.898-22.98-5.6289-56.785-4.5938-57.059 41.273-10.594 30.754-50.805 30.754-50.805s-38.488 20.133-40.969 17.121c-0.94531-1.1523-9.207-8.8438-16.262-10.695-0.19141-0.039062 1.0078-1.125 3.4766-1.4102 2.043-0.26953 5.4766 0.27344 5.4531 0.19141-1.3164-6.0312-12.18-2.4023-13.324-3.0508-2.832-1.5625 10.137-3.1211 9.9609-3.4844-4.4062-9.6953-17.977-0.73828-18.047-1.4883-0.47656-4.7617 10.707-5.9414 10.594-6.0938-7.0781-9.4453-23.23-0.12891-32.73 1.7852-3.543 0.70703-11.664-1.8125-11.871-3.1211-0.96875-6.0742-6.3711-45.684-13.457-44.273-36.77 7.4141-42.598 51.656-33.605 65.754 0 0-35.59 27.508-33.609 54.859 2.9922 40.918 42.645 56.812 46.703 65.879 1.3984 3.1133 1.0312 27.461-7.7578 52.848-17.148 49.57-51.289 124.2-44.781 182.43 5.3945 48.25 46.137 52.91 51.633 53.766 25.363 4 79.18 3.3594 115.1-6.3672 10.832-2.9414 55.781-20.793 68.023-97.887 4.8008-30.219-12.203-77.539-12.285-123.57-0.10156-44.488 33.438-72.184 63.207-73.551 28.516-1.3086 48.859 28.531 49.387 27.621 39.684-70.105-51.812-117.41-93.297-98.117z"/>
 </g>
</svg>
